<?xml version="1.0" standalone="no"?>
<!DOCTYPE svg PUBLIC "-//W3C//DTD SVG 20010904//EN"
 "http://www.w3.org/TR/2001/REC-SVG-20010904/DTD/svg10.dtd">
<svg version="1.0" xmlns="http://www.w3.org/2000/svg"
 width="500.000000pt" height="500.000000pt" viewBox="0 0 500.000000 500.000000"
 preserveAspectRatio="xMidYMid meet">

<g transform="translate(0.000000,500.000000) scale(0.100000,-0.100000)"
fill="#000000" stroke="none">
<path d="M2101 3544 c-38 -32 -49 -80 -27 -123 17 -32 61 -61 95 -61 10 0 68
-11 127 -25 104 -25 174 -30 84 -6 -153 41 -153 41 -136 60 28 31 37 79 22
116 -29 68 -108 87 -165 39z m94 -14 c-3 -6 1 -7 10 -4 18 7 45 -48 37 -78 -6
-25 -50 -58 -76 -58 -56 0 -92 69 -61 116 10 16 22 23 31 20 9 -3 12 -1 9 4
-4 6 7 10 25 10 18 0 29 -4 25 -10z"/>
<path d="M2713 3352 c-200 -38 -240 -48 -231 -59 8 -10 8 -17 0 -25 -13 -13
-35 0 -28 18 3 9 -2 14 -14 14 -15 0 -20 -7 -20 -29 0 -28 -1 -28 -151 -67
-164 -42 -193 -59 -205 -119 -11 -61 44 -125 108 -125 40 0 86 36 97 75 11 42
1 77 -31 112 l-21 22 24 9 c13 5 188 53 389 107 486 131 506 147 83 67z m-518
-222 c-3 -5 0 -7 8 -4 20 7 38 -19 39 -57 1 -23 -6 -39 -26 -56 -28 -24 -73
-33 -60 -11 4 6 3 8 -4 5 -16 -11 -44 4 -38 20 3 8 2 12 -3 9 -9 -6 -21 16
-21 38 0 8 9 25 21 40 15 19 30 26 55 26 21 0 33 -4 29 -10z"/>
<path d="M2588 3256 c-52 -15 -54 -22 -11 -29 22 -4 39 -2 41 3 2 6 16 1 32
-10 34 -24 41 -25 33 -3 -5 14 -1 13 24 -5 23 -16 33 -19 36 -10 3 9 10 7 26
-7 19 -16 24 -17 31 -5 7 12 13 11 33 -8 27 -26 34 -27 34 -7 0 13 -99 51
-232 89 -5 1 -27 -2 -47 -8z"/>
<path d="M2898 3164 c24 -17 39 -14 27 5 -3 6 -16 11 -28 11 l-21 0 22 -16z"/>
<path d="M2973 3143 c9 -9 20 -13 24 -9 4 4 1 11 -7 16 -25 16 -35 11 -17 -7z"/>
</g>
</svg>

